<?xml version="1.0" encoding="UTF-8" standalone="no"?>
<!DOCTYPE svg PUBLIC "-//W3C//DTD SVG 1.1//EN"
 "http://www.w3.org/Graphics/SVG/1.1/DTD/svg11.dtd">
<!-- Generated by graphviz version 2.42.4 (0)
 -->
<!-- Title: G Pages: 1 -->
<svg width="884pt" height="71pt"
 viewBox="0.00 0.00 883.80 70.80" xmlns="http://www.w3.org/2000/svg" xmlns:xlink="http://www.w3.org/1999/xlink">
<g id="graph0" class="graph" transform="scale(1 1) rotate(0) translate(14.4 56.4)">
<title>G</title>
<!-- n0 -->
<g id="node1" class="node">
<title>n0</title>
<path fill="#bddf58" stroke="#cfdcc1" d="M81,-39C81,-39 12,-39 12,-39 6,-39 0,-33 0,-27 0,-27 0,-15 0,-15 0,-9 6,-3 12,-3 12,-3 81,-3 81,-3 87,-3 93,-9 93,-15 93,-15 93,-27 93,-27 93,-33 87,-39 81,-39"/>
<text text-anchor="middle" x="46.5" y="-17.9" font-family="Noto Sans CJK SC" font-size="12.00" fill="#203a2c">浏览时间变化</text>
</g>
<!-- n1 -->
<g id="node2" class="node">
<title>n1</title>
<path fill="#eff3e7" stroke="#cfdcc1" d="M225,-39C225,-39 132,-39 132,-39 126,-39 120,-33 120,-27 120,-27 120,-15 120,-15 120,-9 126,-3 132,-3 132,-3 225,-3 225,-3 231,-3 237,-9 237,-15 237,-15 237,-27 237,-27 237,-33 231,-39 225,-39"/>
<text text-anchor="middle" x="178.5" y="-17.9" font-family="Noto Sans CJK SC" font-size="12.00" fill="#203a2c">计算活跃与临近者</text>
</g>
<!-- n0&#45;&gt;n1 -->
<g id="edge1" class="edge">
<title>n0&#45;&gt;n1</title>
<path fill="none" stroke="#8fa782" stroke-width="1.1" d="M93.33,-21C99.96,-21 106.87,-21 113.77,-21"/>
<polygon fill="#8fa782" stroke="#8fa782" stroke-width="1.1" points="114.05,-22.93 119.55,-21 114.05,-19.08 114.05,-22.93"/>
</g>
<!-- n2 -->
<g id="node3" class="node">
<title>n2</title>
<path fill="#eff3e7" stroke="#cfdcc1" d="M375,-42C375,-42 276,-42 276,-42 270,-42 264,-36 264,-30 264,-30 264,-12 264,-12 264,-6 270,0 276,0 276,0 375,0 375,0 381,0 387,-6 387,-12 387,-12 387,-30 387,-30 387,-36 381,-42 375,-42"/>
<text text-anchor="middle" x="325.5" y="-24.4" font-family="Noto Sans CJK SC" font-size="12.00" fill="#203a2c">固定人物优先 · 同</text>
<text text-anchor="middle" x="325.5" y="-11.4" font-family="Noto Sans CJK SC" font-size="12.00" fill="#203a2c">级稳定</text>
</g>
<!-- n1&#45;&gt;n2 -->
<g id="edge2" class="edge">
<title>n1&#45;&gt;n2</title>
<path fill="none" stroke="#8fa782" stroke-width="1.1" d="M237.22,-21C244.01,-21 250.98,-21 257.88,-21"/>
<polygon fill="#8fa782" stroke="#8fa782" stroke-width="1.1" points="258.15,-22.93 263.65,-21 258.15,-19.08 258.15,-22.93"/>
</g>
<!-- n3 -->
<g id="node4" class="node">
<title>n3</title>
<path fill="#eff3e7" stroke="#cfdcc1" d="M543,-42C543,-42 426,-42 426,-42 420,-42 414,-36 414,-30 414,-30 414,-12 414,-12 414,-6 420,0 426,0 426,0 543,0 543,0 549,0 555,-6 555,-12 555,-12 555,-30 555,-30 555,-36 549,-42 543,-42"/>
<text text-anchor="middle" x="484.5" y="-24.4" font-family="Noto Sans CJK SC" font-size="12.00" fill="#203a2c">头像和整条轨道同步变</text>
<text text-anchor="middle" x="484.5" y="-11.4" font-family="Noto Sans CJK SC" font-size="12.00" fill="#203a2c">换</text>
</g>
<!-- n2&#45;&gt;n3 -->
<g id="edge3" class="edge">
<title>n2&#45;&gt;n3</title>
<path fill="none" stroke="#8fa782" stroke-width="1.1" d="M387.2,-21C394.01,-21 401.01,-21 407.97,-21"/>
<polygon fill="#8fa782" stroke="#8fa782" stroke-width="1.1" points="408.31,-22.93 413.81,-21 408.31,-19.08 408.31,-22.93"/>
</g>
<!-- n4 -->
<g id="node5" class="node">
<title>n4</title>
<path fill="#eff3e7" stroke="#cfdcc1" d="M687,-39C687,-39 594,-39 594,-39 588,-39 582,-33 582,-27 582,-27 582,-15 582,-15 582,-9 588,-3 594,-3 594,-3 687,-3 687,-3 693,-3 699,-9 699,-15 699,-15 699,-27 699,-27 699,-33 693,-39 687,-39"/>
<text text-anchor="middle" x="640.5" y="-17.9" font-family="Noto Sans CJK SC" font-size="12.00" fill="#203a2c">点击区间锁定交互</text>
</g>
<!-- n3&#45;&gt;n4 -->
<g id="edge4" class="edge">
<title>n3&#45;&gt;n4</title>
<path fill="none" stroke="#8fa782" stroke-width="1.1" d="M555.29,-21C562.25,-21 569.3,-21 576.19,-21"/>
<polygon fill="#8fa782" stroke="#8fa782" stroke-width="1.1" points="576.44,-22.93 581.94,-21 576.44,-19.08 576.44,-22.93"/>
</g>
<!-- n5 -->
<g id="node6" class="node">
<title>n5</title>
<path fill="#eff3e7" stroke="#cfdcc1" d="M843,-39C843,-39 738,-39 738,-39 732,-39 726,-33 726,-27 726,-27 726,-15 726,-15 726,-9 732,-3 738,-3 738,-3 843,-3 843,-3 849,-3 855,-9 855,-15 855,-15 855,-27 855,-27 855,-33 849,-39 843,-39"/>
<text text-anchor="middle" x="790.5" y="-17.9" font-family="Noto Sans CJK SC" font-size="12.00" fill="#203a2c">详情关闭后继续浏览</text>
</g>
<!-- n4&#45;&gt;n5 -->
<g id="edge5" class="edge">
<title>n4&#45;&gt;n5</title>
<path fill="none" stroke="#8fa782" stroke-width="1.1" d="M699.14,-21C705.99,-21 713.04,-21 720.03,-21"/>
<polygon fill="#8fa782" stroke="#8fa782" stroke-width="1.1" points="720.38,-22.93 725.88,-21 720.38,-19.08 720.38,-22.93"/>
</g>
</g>
</svg>
